<?xml version="1.0" encoding="utf-8"?>
<svg xmlns="http://www.w3.org/2000/svg" viewBox="78.9047 12.1508 335.0314 469.3866" width="335.031px" height="469.387px">
  <defs>
    <radialGradient gradientUnits="userSpaceOnUse" cx="370.631" cy="83.414" r="105.322" id="gradient-0" spreadMethod="repeat">
      <stop offset="0" style="stop-color: rgb(26.275% 38.039% 93.333%)"/>
      <stop offset="1" style="stop-color: rgb(0% 24.715% 65.483%)"/>
    </radialGradient>
  </defs>
  <g>
    <g transform="matrix(1, 0, 0, 1, 0.867032, 22.5422)">
      <g transform="matrix(1.59051, 0, 0, 1.59051, -343.939, 91.6319)" style="">
        <polyline points="380.152 230.972 379.664 230.972 379.176 230.972 378.688 230.972 378.199 230.972 377.711 230.972 377.223 230.972 376.734 230.972 376.246 230.972 375.758 230.972 375.27 230.972 374.781 230.972 374.293 230.972 373.805 230.972 373.316 230.972 372.828 230.972 372.34 230.972 371.852 230.972 371.363 230.972 370.875 230.972 370.387 230.972 369.899 230.972 369.41 230.972 368.922 230.972 368.434 230.972 367.945 230.972 367.457 230.972 367.359 230.875 366.969 230.484 366.481 230.484 365.992 230.484 365.504 230.484 365.016 230.484 364.527 230.484 364.039 230.484 363.551 230.484 363.063 230.484 362.574 230.484 362.086 230.484 361.598 230.484 361.109 230.484 360.621 230.484 360.524 230.386 360.133 229.996 359.645 229.996 359.156 229.996 358.668 229.996 358.18 229.996 357.691 229.996 357.203 229.996 356.715 229.996 356.227 229.996 356.129 229.898 355.738 229.507 355.25 229.507 354.762 229.507 354.274 229.507 353.785 229.507 353.297 229.507 352.809 229.507 352.32 229.507 352.223 229.41 351.832 229.019 351.344 229.019 350.856 229.019 350.367 229.019 349.879 229.019 349.391 229.019 348.902 229.019 348.805 228.921 348.414 228.531 347.926 228.531 347.438 228.531 346.949 228.531 346.461 228.531 346.363 228.433 345.973 228.043 345.484 228.043 344.996 228.043 344.508 228.043 344.02 228.043 343.531 228.043 343.434 227.945 343.043 227.554 342.555 227.554 342.066 227.554 341.578 227.554 341.481 227.457 341.09 227.066 340.602 227.066 340.113 227.066 339.625 227.066 339.137 227.066 339.039 226.968 338.649 226.578 338.16 226.578 337.672 226.578 337.184 226.578 337.086 226.48 336.695 226.089 336.207 226.089 335.719 226.089 335.231 226.089 335.133 225.992 334.742 225.601 334.254 225.601 333.766 225.601 333.277 225.601 333.18 225.503 332.789 225.113 332.301 225.113 331.813 225.113 331.715 225.015 331.324 224.625 330.836 224.625 330.348 224.625 329.859 224.625 329.762 224.527 329.371 224.136 328.883 224.136 328.395 224.136 328.297 224.039 327.906 223.648 327.418 223.648 326.93 223.648 326.832 223.55 326.441 223.16 325.953 223.16 325.465 223.16 325.367 223.062 324.977 222.671 324.488 222.671 324 222.671 323.902 222.574 323.512 222.183 323.024 222.183 322.535 222.183 322.438 222.086 322.047 221.695 321.559 221.695 321.461 221.597 321.07 221.207 320.582 221.207 320.094 221.207 319.996 221.109 319.606 220.718 319.117 220.718 318.629 220.718 318.531 220.621 318.141 220.23 317.652 220.23 317.555 220.132 317.164 219.742 316.676 219.742 316.188 219.742 316.09 219.644 315.699 219.253 315.211 219.253 315.113 219.156 314.723 218.765 314.234 218.765 313.746 218.765 313.649 218.668 313.258 218.277 312.77 218.277 312.672 218.179 312.281 217.789 311.793 217.789 311.695 217.691 311.305 217.3 310.816 217.3 310.719 217.203 310.328 216.812 309.84 216.812 309.742 216.714 309.352 216.324 308.863 216.324 308.375 216.324 308.277 216.226 307.887 215.836 307.399 215.836 307.301 215.738 306.91 215.347 306.422 215.347 306.324 215.25 305.934 214.859 305.445 214.859 305.348 214.761 304.957 214.371 304.469 214.371 304.371 214.273 303.981 213.882 303.492 213.882 303.395 213.785 303.004 213.394 302.516 213.394 302.418 213.296 302.027 212.906 301.93 212.808 301.539 212.418 301.051 212.418 300.953 212.32 300.563 211.929 300.074 211.929 299.977 211.832 299.586 211.441 299.098 211.441 299 211.343 298.609 210.953 298.512 210.855 298.121 210.464 297.633 210.464 297.535 210.367 297.145 209.976 296.656 209.976 296.559 209.878 296.168 209.488 296.07 209.39 295.68 209 295.191 209 295.094 208.902 294.703 208.511 294.215 208.511 294.117 208.414 293.727 208.023 293.629 207.925 293.238 207.535 292.75 207.535 292.652 207.437 292.262 207.046 292.164 206.949 291.774 206.558 291.285 206.558 291.188 206.461 290.797 206.07 290.309 206.07 290.211 205.972 289.82 205.582 289.723 205.484 289.332 205.093 288.844 205.093 288.746 204.996 288.356 204.605 288.258 204.507 287.867 204.117 287.77 204.019 287.379 203.628 286.891 203.628 286.793 203.531 286.402 203.14 286.305 203.043 285.914 202.652 285.816 202.554 285.426 202.164 284.938 202.164 284.84 202.066 284.449 201.675 284.352 201.578 283.961 201.187 283.863 201.089 283.473 200.699 282.984 200.699 282.887 200.601 282.496 200.211 282.399 200.113 282.008 199.722 281.91 199.625 281.52 199.234 281.422 199.136 281.031 198.746 280.543 198.746 280.445 198.648 280.055 198.257 279.957 198.16 279.566 197.769 279.469 197.671 279.078 197.281 278.981 197.183 278.59 196.793 278.492 196.695 278.102 196.304 277.613 196.304 277.516 196.207 277.125 195.816 277.027 195.718 276.637 195.328 276.539 195.23 276.149 194.839 276.051 194.742 275.66 194.351 275.563 194.253 275.172 193.863 275.074 193.765 274.684 193.375 274.586 193.277 274.195 192.886 274.098 192.789 273.707 192.398 273.609 192.3 273.219 191.91 272.731 191.91 272.633 191.812 272.242 191.421 272.145 191.324 271.754 190.933 271.656 190.836 271.266 190.445 271.168 190.347 270.777 189.957 270.68 189.859 270.289 189.468 270.191 189.371 269.801 188.98 269.703 188.882 269.313 188.492 269.215 188.394 269.215 187.906 268.824 187.515 268.727 187.418 268.336 187.027 268.238 186.929 267.848 186.539 267.75 186.441 267.75 185.953 267.359 185.562 267.262 185.464 266.871 185.074 266.774 184.976 266.774 184.488 266.383 184.097 266.285 184 266.285 183.511 266.285 183.023 265.895 182.632 265.797 182.535 265.797 182.046 265.797 181.558 265.406 181.168 265.309 181.07 265.309 180.582 265.309 180.093 265.309 179.605 265.309 179.117 265.309 178.628 265.309 178.14 265.309 177.652 265.309 177.164 265.309 176.675 265.406 176.578 265.797 176.187 265.797 175.699 265.797 175.211 265.797 174.722 265.895 174.625 266.285 174.234 266.285 173.746 266.383 173.648 266.774 173.257 266.774 172.769 266.871 172.671 267.262 172.281 267.262 171.793 267.359 171.695 267.75 171.304 267.848 171.207 268.238 170.816 268.336 170.718 268.727 170.328 268.727 169.839 268.824 169.742 269.215 169.351 269.313 169.253 269.703 168.863 269.801 168.765 270.191 168.375 270.191 167.886 270.289 167.789 270.68 167.398 270.777 167.3 271.168 166.91 271.266 166.812 271.656 166.421 271.656 165.933 271.754 165.836 272.145 165.445 272.242 165.347 272.633 164.957 272.731 164.859 273.121 164.468 273.121 163.98 273.219 163.882 273.609 163.492 273.707 163.394 274.098 163.003 274.195 162.906 274.586 162.515 274.684 162.418 275.074 162.027 275.074 161.539 275.172 161.441 275.563 161.05 275.66 160.953 276.051 160.562 276.149 160.464 276.539 160.074 276.539 159.586 276.637 159.488 277.027 159.097 277.125 159 277.516 158.609 277.613 158.511 278.004 158.121 278.102 158.023 278.492 157.632 278.492 157.144 278.59 157.046 278.981 156.656 279.078 156.558 279.469 156.168 279.566 156.07 279.957 155.679 279.957 155.191 280.055 155.093 280.445 154.703 280.543 154.605 280.934 154.214 281.031 154.117 281.422 153.726 281.422 153.238 281.52 153.14 281.91 152.75 282.008 152.652 282.399 152.261 282.496 152.164 282.887 151.773 282.984 151.675 283.375 151.285 283.375 150.796 283.473 150.699 283.863 150.308 283.961 150.211 284.352 149.82 284.449 149.722 284.84 149.332 284.938 149.234 285.328 148.843 285.328 148.355 285.426 148.257 285.816 147.867 285.914 147.769 286.305 147.378 286.402 147.281 286.793 146.89 286.891 146.793 287.281 146.402 287.379 146.304 287.867 146.304 288.258 145.914 288.356 145.816 288.746 145.425 288.844 145.328 289.332 145.328 289.723 144.937 289.82 144.839 292.489 143.203 290.699 144.449 290.797 144.351 291.285 144.351 291.774 144.351 292.164 143.961 292.262 143.863 292.75 143.863 293.238 143.863 293.727 143.863 294.215 143.863 294.703 143.863 295.191 143.863 295.68 143.863 296.168 143.863 296.266 143.961 296.656 144.351 297.145 144.351 297.633 144.351 298.121 144.351 298.219 144.449 298.609 144.839 299.098 144.839 299.195 144.937 299.586 145.328 300.074 145.328 300.172 145.425 300.563 145.816 300.66 145.914 301.051 146.304 301.539 146.304 301.637 146.402 302.027 146.793 302.125 146.89 302.516 147.281 302.613 147.378 303.004 147.769 303.102 147.867 303.492 148.257 303.981 148.257 304.078 148.355 304.469 148.746 304.566 148.843 304.957 149.234 305.055 149.332 305.445 149.722 305.543 149.82 305.934 150.211 306.031 150.308 306.422 150.699 306.52 150.796 306.91 151.187 307.008 151.285 307.399 151.675 307.887 151.675 307.984 151.773 308.375 152.164 308.473 152.261 308.863 152.652 308.961 152.75 309.352 153.14 309.449 153.238 309.84 153.628 309.938 153.726 310.328 154.117 310.426 154.214 310.816 154.605 311.305 154.605 311.402 154.703 311.793 155.093 311.891 155.191 312.281 155.582 312.379 155.679 312.77 156.07 312.867 156.168 313.258 156.558 313.746 156.558 313.844 156.656 314.234 157.046 314.332 157.144 314.723 157.535 314.82 157.632 315.211 158.023 315.699 158.023 315.797 158.121 316.188 158.511 316.285 158.609 316.676 159 316.774 159.097 317.164 159.488 317.652 159.488 317.75 159.586 318.141 159.976 318.238 160.074 318.629 160.464 318.727 160.562 319.117 160.953 319.606 160.953 319.703 161.05 320.094 161.441 320.191 161.539 320.582 161.929 321.07 161.929 321.168 162.027 321.559 162.418 321.656 162.515 322.047 162.906 322.535 162.906 322.633 163.003 323.024 163.394 323.512 163.394 323.609 163.492 324 163.882 324.098 163.98 324.488 164.371 324.977 164.371 325.074 164.468 325.465 164.859 325.953 164.859 326.051 164.957 326.441 165.347 326.539 165.445 326.93 165.836 327.418 165.836 327.516 165.933 327.906 166.324 328.395 166.324 328.492 166.421 328.883 166.812 329.371 166.812 329.469 166.91 329.859 167.3 330.348 167.3 330.445 167.398 330.836 167.789 331.324 167.789 331.422 167.886 331.813 168.277 332.301 168.277 332.399 168.375 332.789 168.765 333.277 168.765 333.375 168.863 333.766 169.253 334.254 169.253 334.742 169.253 334.84 169.351 335.231 169.742 335.719 169.742 335.816 169.839 336.207 170.23 336.695 170.23 336.793 170.328 337.184 170.718 337.672 170.718 338.16 170.718 338.258 170.816 338.649 171.207 339.137 171.207 339.234 171.304 339.625 171.695 340.113 171.695 340.602 171.695 340.699 171.793 341.09 172.183 341.578 172.183 342.066 172.183 342.164 172.281 342.555 172.671 343.043 172.671 343.141 172.769 343.531 173.16 344.02 173.16 344.508 173.16 344.996 173.16 345.094 173.257 345.484 173.648 345.973 173.648 346.461 173.648 346.559 173.746 346.949 174.136 347.438 174.136 347.926 174.136 348.024 174.234 348.414 174.625 348.902 174.625 349.391 174.625 349.879 174.625 349.977 174.722 350.367 175.113 350.856 175.113 351.344 175.113 351.832 175.113 351.93 175.211 352.32 175.601 352.809 175.601 353.297 175.601 353.785 175.601 353.883 175.699 354.274 176.089 354.762 176.089 355.25 176.089 355.738 176.089 356.227 176.089 356.324 176.187 356.715 176.578 357.203 176.578 357.691 176.578 358.18 176.578 358.668 176.578 359.156 176.578 359.254 176.675 359.645 177.066 360.133 177.066 360.621 177.066 361.109 177.066 361.598 177.066 362.086 177.066 362.574 177.066 363.063 177.066 363.16 177.164 363.551 177.554 364.039 177.554 364.527 177.554 365.016 177.554 365.504 177.554 365.992 177.554 366.481 177.554 366.969 177.554 367.457 177.554 367.945 177.554 368.434 177.554 368.922 177.554 369.41 177.554 369.899 177.554 370.387 177.554 370.875 177.554 371.363 177.554 371.852 177.554 372.34 177.554 372.828 177.554 373.316 177.554 373.414 177.652 373.805 178.043 374.195 177.652 374.293 177.554 374.781 177.554 375.27 177.554 375.758 177.554 376.246 177.554 376.734 177.554 377.223 177.554 377.711 177.554 378.199 177.554 378.688 177.554 379.176 177.554 379.664 177.554 380.152 177.554 380.543 177.164 380.641 177.066 381.129 177.066 381.617 177.066 382.106 177.066 382.594 177.066 383.082 177.066 383.57 177.066 383.961 176.675 384.059 176.578 384.547 176.578 385.035 176.578 385.524 176.578 385.914 176.187 386.012 176.089 386.5 176.089 386.988 176.089 387.477 176.089 387.867 175.699 387.965 175.601 388.453 175.601 388.941 175.601 389.43 175.601 389.82 175.211 389.918 175.113 390.406 175.113 390.895 175.113 391.285 174.722 391.383 174.625 391.871 174.625 392.359 174.625 392.75 174.234 392.848 174.136 393.336 174.136 393.824 174.136 394.215 173.746 394.313 173.648 394.801 173.648 395.191 173.257 395.289 173.16 395.777 173.16 396.168 172.769 396.266 172.671 396.754 172.671 397.145 172.281 397.242 172.183 397.731 172.183 398.121 171.793 398.219 171.695 398.707 171.695 399.098 171.304 399.195 171.207 399.684 171.207 400.074 170.816 400.172 170.718 400.563 170.328 400.66 170.23 401.149 170.23 401.539 169.839 401.637 169.742 402.027 169.351 402.125 169.253 402.516 168.863 402.613 168.765 403.102 168.765 403.492 168.375 403.59 168.277 403.981 167.886 404.078 167.789 404.469 167.398 404.566 167.3 404.957 166.91 405.055 166.812 405.543 166.812 405.934 166.421 406.031 166.324 406.422 165.933 406.422 165.445 406.52 165.347 406.91 164.957 407.008 164.859 407.399 164.468 407.496 164.371 407.887 163.98 407.984 163.882 408.375 163.492 408.473 163.394 408.863 163.003 408.863 162.515 408.961 162.418 409.352 162.027 409.449 161.929 409.84 161.539 409.938 161.441 410.328 161.05 410.328 160.562 410.426 160.464 410.816 160.074 410.816 159.586 410.914 159.488 411.305 159.097 411.305 158.609 411.402 158.511 411.793 158.121 411.793 157.632 411.891 157.535 412.281 157.144 412.281 156.656 412.281 156.168 412.379 156.07 412.77 155.679 412.77 155.191 412.77 154.703 412.77 154.214 412.867 154.117 413.258 153.726 413.258 153.238 413.258 152.75 413.258 152.261 413.258 151.773 413.258 151.285 413.356 151.187 413.746 150.796 413.746 150.308 413.746 149.82 413.746 149.332 413.746 148.843 413.746 148.355 413.746 147.867 413.746 147.378 413.746 146.89 413.746 146.402 413.746 145.914 413.746 145.425 413.746 144.937 413.746 144.449 413.356 144.058 413.258 143.961 413.258 143.472 413.258 142.984 413.258 142.496 413.258 142.007 412.867 141.617 412.77 141.519 412.77 141.031 412.77 140.543 412.77 140.054 412.379 139.664 412.281 139.566 412.281 139.078 412.281 138.589 411.891 138.199 411.793 138.101 411.793 137.613 411.402 137.222 411.305 137.125 411.305 136.636 410.914 136.246 410.816 136.148 410.816 135.66 410.426 135.269 410.328 135.171 410.328 134.683 409.938 134.293 409.84 134.195 409.449 133.804 409.352 133.707 409.352 133.218 408.961 132.828 408.863 132.73 408.473 132.339 408.375 132.242 407.984 131.851 407.887 131.753 407.496 131.363 407.399 131.265 407.399 130.777 407.008 130.386 406.91 130.289 406.52 129.898 406.422 129.8 406.031 129.41 405.934 129.312 405.543 128.921 405.445 128.824 405.055 128.433 404.957 128.336 404.566 127.945 404.078 127.945 403.981 127.847 403.59 127.457 403.492 127.359 403.102 126.968 403.004 126.871 402.613 126.48 402.516 126.382 402.125 125.992 401.637 125.992 401.539 125.894 401.149 125.503 401.051 125.406 400.66 125.015 400.172 125.015 400.074 124.918 399.684 124.527 399.586 124.429 399.195 124.039 398.707 124.039 398.609 123.941 398.219 123.55 398.121 123.453 397.731 123.062 397.242 123.062 397.145 122.964 396.754 122.574 396.266 122.574 396.168 122.476 395.777 122.086 395.289 122.086 395.191 121.988 394.801 121.597 394.313 121.597 394.215 121.5 393.824 121.109 393.336 121.109 393.238 121.011 392.848 120.621 392.359 120.621 391.871 120.621 391.774 120.523 391.383 120.132 390.895 120.132 390.797 120.035 390.406 119.644 389.918 119.644 389.82 119.546 389.43 119.156 388.941 119.156 388.453 119.156 388.356 119.058 387.965 118.668 387.477 118.668 387.379 118.57 386.988 118.179 386.5 118.179 386.012 118.179 385.914 118.082 385.524 117.691 385.035 117.691 384.547 117.691 384.449 117.593 384.059 117.203 383.57 117.203 383.473 117.105 383.082 116.714 382.594 116.714 382.106 116.714 382.008 116.617 381.617 116.226 381.129 116.226 380.641 116.226 380.543 116.128 380.152 115.738 379.664 115.738 379.176 115.738 379.078 115.64 378.688 115.25 378.199 115.25 377.711 115.25 377.223 115.25 377.125 115.152 376.734 114.761 376.246 114.761 375.758 114.761 375.66 114.664 375.27 114.273 374.781 114.273 374.293 114.273 374.195 114.175 373.805 113.785 373.316 113.785 372.828 113.785 372.34 113.785 372.242 113.687 371.852 113.296 371.363 113.296 370.875 113.296 370.777 113.199 370.387 112.808 369.899 112.808 369.41 112.808 368.922 112.808 368.824 112.711 368.434 112.32 367.945 112.32 367.457 112.32 366.969 112.32 366.871 112.222 366.481 111.832 365.992 111.832 365.504 111.832 365.406 111.734 365.016 111.343 364.527 111.343 364.039 111.343 363.551 111.343 363.063 111.343 362.965 111.246 362.574 110.855 362.086 110.855 361.598 110.855 361.5 110.757 361.109 110.367 360.621 110.367 360.133 110.367 360.035 110.269 359.645 109.878 359.156 109.878 358.668 109.878 358.18 109.878 358.082 109.781 357.691 109.39 357.203 109.39 356.715 109.39 356.617 109.293 356.227 108.902 355.738 108.902 355.25 108.902 354.762 108.902 354.664 108.804 354.274 108.414 353.785 108.414 353.297 108.414 352.809 108.414 352.711 108.316 352.32 107.925 351.832 107.925 351.344 107.925 351.246 107.828 350.856 107.437 350.367 107.437 349.879 107.437 349.391 107.437 349.293 107.339 348.902 106.949 348.414 106.949 347.926 106.949 347.828 106.851 347.438 106.461 346.949 106.461 346.461 106.461 345.973 106.461 345.875 106.363 345.484 105.972 344.996 105.972 344.508 105.972 344.41 105.875 344.02 105.484 343.531 105.484 343.043 105.484 342.945 105.386 342.555 104.996 342.066 104.996 341.578 104.996 341.481 104.898 341.09 104.507 340.602 104.507 340.113 104.507 339.625 104.507 339.527 104.41 339.137 104.019 338.649 104.019 338.551 103.921 338.16 103.531 337.672 103.531 337.184 103.531 337.086 103.433 336.695 103.043 336.207 103.043 335.719 103.043 335.621 102.945 335.231 102.554 334.742 102.554 334.254 102.554 334.156 102.457 333.766 102.066 333.277 102.066 333.18 101.968 332.789 101.578 332.301 101.578 331.813 101.578 331.715 101.48 331.324 101.089 330.836 101.089 330.348 101.089 330.25 100.992 329.859 100.601 329.371 100.601 329.274 100.503 328.883 100.113 328.395 100.113 327.906 100.113 327.809 100.015 327.418 99.625 326.93 99.625 326.832 99.527 326.441 99.136 325.953 99.136 325.856 99.039 325.465 98.648 324.977 98.648 324.488 98.648 324.391 98.55 324 98.16 323.512 98.16 323.414 98.062 323.024 97.671 322.535 97.671 322.438 97.574 322.047 97.183 321.559 97.183 321.461 97.086 321.07 96.695 320.582 96.695 320.484 96.597 320.094 96.207 319.606 96.207 319.508 96.109 319.117 95.718 318.629 95.718 318.531 95.621 318.141 95.23 317.652 95.23 317.555 95.132 317.164 94.742 316.676 94.742 316.578 94.644 316.188 94.253 315.699 94.253 315.602 94.156 315.211 93.765 314.723 93.765 314.625 93.668 314.234 93.277 313.746 93.277 313.649 93.179 313.258 92.789 313.16 92.691 312.77 92.3 312.281 92.3 312.184 92.203 311.793 91.812 311.305 91.812 311.207 91.714 310.816 91.324 310.719 91.226 310.328 90.836 309.84 90.836 309.742 90.738 309.352 90.347 308.863 90.347 308.766 90.25 308.375 89.859 308.277 89.761 307.887 89.371 307.399 89.371 307.301 89.273 306.91 88.882 306.813 88.785 306.422 88.394 305.934 88.394 305.836 88.296 305.445 87.906 305.348 87.808 304.957 87.418 304.859 87.32 304.469 86.929 303.981 86.929 303.883 86.832 303.492 86.441 303.395 86.343 303.004 85.953 302.516 85.953 302.418 85.855 302.027 85.464 301.93 85.367 301.539 84.976 301.441 84.878 301.051 84.488 300.953 84.39 300.563 84 300.465 83.902 300.074 83.511 299.586 83.511 299.488 83.414 299.098 83.023 299 82.925 298.609 82.535 298.512 82.437 298.121 82.046 298.024 81.949 297.633 81.558 297.535 81.461 297.145 81.07 297.047 80.972 296.656 80.582 296.559 80.484 296.168 80.093 296.07 79.996 295.68 79.605 295.582 79.507 295.191 79.117 295.094 79.019 294.703 78.628 294.606 78.531 294.215 78.14 294.117 78.043 293.727 77.652 293.629 77.554 293.238 77.164 293.141 77.066 292.75 76.675 292.652 76.578 292.262 76.187 292.164 76.089 291.774 75.699 291.676 75.601 291.285 75.211 291.188 75.113 290.797 74.722 290.699 74.625 290.699 74.136 290.309 73.746 290.211 73.648 289.82 73.257 289.723 73.16 289.332 72.769 289.234 72.671 288.844 72.281 288.746 72.183 288.746 71.695 288.356 71.304 288.258 71.207 287.867 70.816 287.77 70.718 287.379 70.328 287.281 70.23 287.281 69.742 286.891 69.351 286.793 69.253 286.402 68.863 286.305 68.765 286.305 68.277 285.914 67.886 285.816 67.789 285.426 67.398 285.328 67.3 285.328 66.812 284.938 66.421 284.84 66.324 284.449 65.933 284.352 65.836 284.352 65.347 283.961 64.957 283.863 64.859 283.863 64.371 283.473 63.98 283.375 63.882 283.375 63.394 282.984 63.003 282.887 62.906 282.887 62.418 282.496 62.027 282.399 61.929 282.399 61.441 282.008 61.05 281.91 60.953 281.91 60.464 281.52 60.074 281.422 59.976 281.422 59.488 281.031 59.097 280.934 59 280.934 58.511 280.543 58.121 280.445 58.023 280.445 57.535 280.055 57.144 279.957 57.046 279.957 56.558 279.566 56.168 279.469 56.07 279.469 55.582 279.469 55.093 279.078 54.703 278.981 54.605 278.981 54.117 278.59 53.726 278.492 53.628 278.492 53.14 278.492 52.652 278.102 52.261 278.004 52.164 278.004 51.675 278.004 51.187 277.613 50.796 277.516 50.699 277.516 50.21 277.516 49.722 277.125 49.332 277.027 49.234 277.027 48.746 277.027 48.257 277.027 47.769 276.637 47.378 276.539 47.281 276.539 46.793 276.539 46.304 276.149 45.914 276.051 45.816 276.051 45.328 276.051 44.839 276.051 44.351 276.051 43.863 275.66 43.472 275.563 43.375 275.563 42.886 275.563 42.398 275.563 41.91 275.172 41.519 275.074 41.421 275.074 40.933 275.074 40.445 275.074 39.957 275.074 39.468 274.684 39.078 274.586 38.98 274.586 38.492 274.586 38.003 274.586 37.515 274.586 37.027 274.586 36.539 274.586 36.05 274.195 35.66 274.098 35.562 274.098 35.074 274.098 34.585 274.098 34.097 274.098 33.609 274.098 33.121 274.098 32.632 274.098 32.144 274.098 31.656 274.098 31.168 273.707 30.777 273.609 30.679 273.609 30.191 273.609 29.703 273.609 29.214 273.609 28.726 273.609 28.238 273.609 27.75 273.609 27.261 273.609 26.773 273.609 26.285 273.609 25.796 273.609 25.308 273.609 24.82 273.609 24.332 273.609 23.843 273.609 23.355 273.609 22.867 273.609 22.378 273.609 21.89 273.609 21.402 273.609 20.914 273.609 20.425 273.609 19.937 273.609 19.449 273.609 18.96 273.609 18.472 273.609 17.984 273.609 17.496 273.609 17.007 273.609 16.519 273.609 16.031 273.609 15.543 273.609 15.054 273.609 14.566 273.707 14.468 274.098 14.078 274.098 13.589 274.098 13.101 274.098 12.613 274.098 12.125 274.098 11.636 274.098 11.148 274.098 10.66 274.195 10.562 274.586 10.171 274.586 9.683 274.586 9.195 274.586 8.707 274.586 8.218 274.586 7.73 274.684 7.632 275.074 7.242 275.074 6.753 275.074 6.265 275.074 5.777 275.074 5.289 275.074 4.8 275.172 4.703 275.563 4.312 275.563 3.824 275.563 3.335 275.563 2.847 275.66 2.75 276.051 2.359 276.051 1.871 276.051 1.382 276.051 0.894 276.149 0.796 276.539 0.406 276.539 -0.082 276.539 -0.571 276.539 -1.059 276.637 -1.157 277.027 -1.547 277.027 -2.036 277.027 -2.524 277.027 -3.012 277.125 -3.11 277.516 -3.5 277.516 -3.989 277.516 -4.477 277.613 -4.575 278.004 -4.965 278.004 -5.454 278.004 -5.942 278.102 -6.04 278.492 -6.43 278.492 -6.918 278.492 -7.407 278.59 -7.504 278.981 -7.895 278.981 -8.383 278.981 -8.872 279.078 -8.969 279.469 -9.36 279.469 -9.848 279.566 -9.946 279.957 -10.336 279.957 -10.825 279.957 -11.313 280.055 -11.411 280.445 -11.801 280.445 -12.29 280.543 -12.387 280.934 -12.778 280.934 -13.266 281.031 -13.364 281.422 -13.754 281.422 -14.243 281.52 -14.34 281.91 -14.731 281.91 -15.219 282.008 -15.317 282.399 -15.707 282.399 -16.196 282.496 -16.293 282.887 -16.684 282.887 -17.172 282.984 -17.27 283.375 -17.661 283.375 -18.149 283.473 -18.247 283.863 -18.637 283.961 -18.735 284.352 -19.125 284.352 -19.614 284.449 -19.711 284.84 -20.102 284.84 -20.59 284.938 -20.688 285.328 -21.079 285.426 -21.176 285.816 -21.567 285.816 -22.055 285.914 -22.153 286.305 -22.543 286.402 -22.641 286.793 -23.032 286.793 -23.52 286.891 -23.618 287.281 -24.008 287.379 -24.106 287.77 -24.497 287.867 -24.594 288.258 -24.985 288.258 -25.473 288.356 -25.571 288.746 -25.961 288.844 -26.059 289.234 -26.45 289.332 -26.547 289.723 -26.938 289.723 -27.426 289.82 -27.524 290.211 -27.915 290.309 -28.012 290.699 -28.403 290.797 -28.5 291.188 -28.891 291.285 -28.989 291.676 -29.379 291.774 -29.477 292.164 -29.868 292.164 -30.356 292.262 -30.454 292.652 -30.844 292.75 -30.942 293.141 -31.332 293.238 -31.43 293.629 -31.821 293.727 -31.918 294.117 -32.309 294.215 -32.407 294.606 -32.797 294.703 -32.895 295.094 -33.286 295.191 -33.383 295.582 -33.774 295.68 -33.872 296.07 -34.262 296.168 -34.36 296.559 -34.75 296.656 -34.848 297.047 -35.239 297.145 -35.336 297.535 -35.727 297.633 -35.825 298.024 -36.215 298.121 -36.313 298.512 -36.704 298.609 -36.801 299 -37.192 299.098 -37.29 299.488 -37.68 299.586 -37.778 300.074 -37.778 300.465 -38.168 300.563 -38.266 300.953 -38.657 301.051 -38.754 301.441 -39.145 301.539 -39.243 301.93 -39.633 302.027 -39.731 302.516 -39.731 302.906 -40.122 303.004 -40.219 303.395 -40.61 303.492 -40.707 303.883 -41.098 303.981 -41.196 304.371 -41.586 304.469 -41.684 304.957 -41.684 305.348 -42.075 305.445 -42.172 305.836 -42.563 305.934 -42.661 306.422 -42.661 306.813 -43.051 306.91 -43.149 307.301 -43.54 307.399 -43.637 307.789 -44.028 307.887 -44.125 308.375 -44.125 308.766 -44.516 308.863 -44.614 309.254 -45.004 309.352 -45.102 309.84 -45.102 310.231 -45.493 310.328 -45.59 310.719 -45.981 310.816 -46.079 311.305 -46.079 311.695 -46.469 311.793 -46.567 312.184 -46.957 312.281 -47.055 312.77 -47.055 313.16 -47.446 313.258 -47.543 313.746 -47.543 314.137 -47.934 314.234 -48.032 314.625 -48.422 314.723 -48.52 315.211 -48.52 315.602 -48.911 315.699 -49.008 316.188 -49.008 316.578 -49.399 316.676 -49.497 317.164 -49.497 317.555 -49.887 317.652 -49.985 318.043 -50.375 318.141 -50.473 318.629 -50.473 319.02 -50.864 319.117 -50.961 319.606 -50.961 319.996 -51.352 320.094 -51.45 320.582 -51.45 320.973 -51.84 321.07 -51.938 321.559 -51.938 321.949 -52.329 322.047 -52.426 322.535 -52.426 322.926 -52.817 323.024 -52.915 323.512 -52.915 323.902 -53.305 324 -53.403 324.488 -53.403 324.977 -53.403 325.367 -53.793 325.465 -53.891 325.953 -53.891 326.344 -54.282 326.441 -54.379 326.93 -54.379 327.32 -54.77 327.418 -54.868 327.906 -54.868 328.395 -54.868 328.785 -55.258 328.883 -55.356 329.371 -55.356 329.762 -55.747 329.859 -55.844 330.348 -55.844 330.836 -55.844 331.227 -56.235 331.324 -56.332 331.813 -56.332 332.203 -56.723 332.301 -56.821 332.789 -56.821 333.277 -56.821 333.668 -57.211 333.766 -57.309 334.254 -57.309 334.742 -57.309 335.133 -57.7 335.231 -57.797 335.719 -57.797 336.207 -57.797 336.598 -58.188 336.695 -58.286 337.184 -58.286 337.672 -58.286 338.063 -58.676 338.16 -58.774 338.649 -58.774 339.137 -58.774 339.527 -59.165 339.625 -59.262 340.113 -59.262 340.602 -59.262 341.09 -59.262 341.481 -59.653 341.578 -59.75 342.066 -59.75 342.555 -59.75 342.945 -60.141 343.043 -60.239 343.531 -60.239 344.02 -60.239 344.508 -60.239 344.996 -60.239 345.387 -60.629 345.484 -60.727 345.973 -60.727 346.461 -60.727 346.949 -60.727 347.34 -61.118 347.438 -61.215 347.926 -61.215 348.414 -61.215 348.902 -61.215 349.293 -61.606 349.391 -61.704 349.879 -61.704 350.367 -61.704 350.856 -61.704 351.344 -61.704 351.734 -62.094 351.832 -62.192 352.32 -62.192 352.809 -62.192 353.297 -62.192 353.785 -62.192 354.176 -62.582 354.274 -62.68 354.762 -62.68 355.25 -62.68 355.738 -62.68 356.227 -62.68 356.715 -62.68 357.203 -62.68 357.691 -62.68 358.082 -63.071 358.18 -63.168 358.668 -63.168 359.156 -63.168 359.645 -63.168 360.133 -63.168 360.621 -63.168 361.109 -63.168 361.5 -63.559 361.598 -63.657 362.086 -63.657 362.574 -63.657 363.063 -63.657 363.551 -63.657 364.039 -63.657 364.527 -63.657 365.016 -63.657 365.504 -63.657 365.992 -63.657 366.481 -63.657 366.969 -63.657 367.359 -64.047 367.457 -64.145 367.945 -64.145 368.434 -64.145 368.922 -64.145 369.41 -64.145 369.899 -64.145 370.387 -64.145 370.875 -64.145 371.363 -64.145 371.852 -64.145 372.34 -64.145 372.828 -64.145 373.316 -64.145 373.805 -64.145 374.293 -64.145 374.781 -64.145 375.27 -64.145 375.758 -64.145 376.246 -64.145 376.734 -64.145 377.223 -64.145 377.711 -64.145 378.199 -64.145 378.688 -64.145 379.176 -64.145 379.664 -64.145 380.152 -64.145 380.641 -64.145 381.129 -64.145 381.617 -64.145 382.106 -64.145 382.594 -64.145 383.082 -64.145 383.57 -64.145 384.059 -64.145 384.547 -64.145 384.645 -64.047 385.035 -63.657 385.524 -63.657 386.012 -63.657 386.5 -63.657 386.988 -63.657 387.477 -63.657 387.965 -63.657 388.453 -63.657 388.941 -63.657 389.43 -63.657 389.918 -63.657 390.406 -63.657 390.895 -63.657 390.992 -63.559 391.383 -63.168 391.871 -63.168 392.359 -63.168 392.848 -63.168 393.336 -63.168 393.824 -63.168 394.313 -63.168 394.801 -63.168 395.289 -63.168 395.777 -63.168 395.875 -63.071 396.266 -62.68 396.754 -62.68 397.242 -62.68 397.731 -62.68 398.219 -62.68 398.707 -62.68 399.195 -62.68 399.293 -62.582 399.684 -62.192 400.172 -62.192 400.66 -62.192 401.149 -62.192 401.637 -62.192 402.125 -62.192 402.613 -62.192 402.711 -62.094 403.102 -61.704 403.59 -61.704 404.078 -61.704 404.566 -61.704 405.055 -61.704 405.152 -61.606 405.543 -61.215 406.031 -61.215 406.52 -61.215 407.008 -61.215 407.496 -61.215 407.594 -61.118 407.984 -60.727 408.473 -60.727 408.961 -60.727 409.449 -60.727 409.938 -60.727 410.035 -60.629 410.426 -60.239 410.914 -60.239 411.402 -60.239 411.891 -60.239 412.379 -60.239 412.477 -60.141 412.867 -59.75 413.356 -59.75 413.844 -59.75 413.941 -59.653 414.332 -59.262 414.82 -59.262 415.309 -59.262 415.797 -59.262 415.895 -59.165 416.285 -58.774 416.774 -58.774 417.262 -58.774 417.75 -58.774 417.848 -58.676 418.238 -58.286 418.727 -58.286 419.215 -58.286 419.703 -58.286 419.801 -58.188 420.191 -57.797 420.68 -57.797 421.168 -57.797 421.656 -57.797 421.754 -57.7 422.145 -57.309 422.633 -57.309 423.121 -57.309 423.219 -57.211 423.609 -56.821 424.098 -56.821 424.586 -56.821 424.684 -56.723 425.074 -56.332 425.563 -56.332 426.051 -56.332 426.149 -56.235 426.539 -55.844 427.027 -55.844 427.516 -55.844 427.613 -55.747 428.004 -55.356 428.492 -55.356 428.981 -55.356 429.078 -55.258 429.469 -54.868 429.957 -54.868 430.445 -54.868 430.543 -54.77 430.934 -54.379 431.422 -54.379 431.91 -54.379 432.008 -54.282 432.399 -53.891 432.887 -53.891 432.984 -53.793 433.375 -53.403 433.863 -53.403 434.352 -53.403 434.449 -53.305 434.84 -52.915 435.328 -52.915 435.816 -52.915 435.914 -52.817 436.305 -52.426 436.793 -52.426 436.891 -52.329 437.281 -51.938 437.77 -51.938 438.258 -51.938 438.356 -51.84 438.746 -51.45 439.234 -51.45 439.332 -51.352 439.723 -50.961 440.211 -50.961 440.309 -50.864 440.699 -50.473 441.188 -50.473 441.676 -50.473 441.774 -50.375 442.164 -49.985 442.652 -49.985 442.75 -49.887 443.141 -49.497 443.629 -49.497 443.727 -49.399 444.117 -49.008 444.606 -49.008 444.703 -48.911 445.094 -48.52 445.582 -48.52 445.68 -48.422 446.07 -48.032 446.559 -48.032 446.656 -47.934 447.047 -47.543 447.535 -47.543 447.633 -47.446 448.024 -47.055 448.512 -47.055 448.609 -46.957 449 -46.567 449.488 -46.567 449.586 -46.469 449.977 -46.079 450.465 -46.079 450.563 -45.981 450.953 -45.59 451.441 -45.59 451.539 -45.493 451.93 -45.102 452.418 -45.102 452.516 -45.004 452.906 -44.614 453.004 -44.516 453.395 -44.125 453.883 -44.125 453.981 -44.028 454.371 -43.637 454.859 -43.637 454.957 -43.54 455.348 -43.149 455.445 -43.051 455.836 -42.661 456.324 -42.661 456.422 -42.563 456.813 -42.172 457.301 -42.172 457.399 -42.075 457.789 -41.684 457.887 -41.586 458.277 -41.196 458.766 -41.196 458.863 -41.098 459.254 -40.707 459.352 -40.61 459.742 -40.219 460.231 -40.219 460.328 -40.122 460.719 -39.731 460.816 -39.633 461.207 -39.243 461.695 -39.243 461.793 -39.145 462.184 -38.754 462.281 -38.657 462.672 -38.266 463.16 -38.266 463.258 -38.168 463.649 -37.778 463.746 -37.68 464.137 -37.29 464.234 -37.192 464.625 -36.801 465.113 -36.801 465.211 -36.704 465.602 -36.313 465.699 -36.215 466.09 -35.825 466.188 -35.727 466.578 -35.336 467.066 -35.336 467.164 -35.239 467.555 -34.848 467.652 -34.75 468.043 -34.36 468.141 -34.262 468.531 -33.872 468.629 -33.774 469.02 -33.383 469.117 -33.286 469.508 -32.895 469.606 -32.797 469.996 -32.407 470.094 -32.309 470.484 -31.918 470.582 -31.821 470.973 -31.43 471.07 -31.332 471.07 -30.844 471.461 -30.454 471.559 -30.356 471.559 -29.868 471.949 -29.477 472.047 -29.379 472.047 -28.891 472.047 -28.403 472.047 -27.915 472.438 -27.524 472.535 -27.426 472.535 -26.938 472.535 -26.45 472.535 -25.961 472.535 -25.473 472.535 -24.985 472.535 -24.497 472.535 -24.008 472.535 -23.52 472.438 -23.422 472.047 -23.032 472.047 -22.543 472.047 -22.055 471.949 -21.957 471.559 -21.567 471.559 -21.079 471.559 -20.59 471.461 -20.493 471.07 -20.102 471.07 -19.614 470.973 -19.516 470.582 -19.125 470.582 -18.637 470.484 -18.54 470.094 -18.149 469.996 -18.051 469.606 -17.661 469.606 -17.172 469.508 -17.075 469.117 -16.684 469.117 -16.196 469.02 -16.098 468.629 -15.707 468.531 -15.61 468.141 -15.219 468.141 -14.731 468.043 -14.633 467.652 -14.243 467.652 -13.754 467.555 -13.657 467.164 -13.266 467.066 -13.168 466.676 -12.778 466.676 -12.29 466.578 -12.192 466.188 -11.801 466.188 -11.313 466.09 -11.215 465.699 -10.825 465.699 -10.336 465.602 -10.239 465.211 -9.848 465.113 -9.75 464.723 -9.36 464.723 -8.872 464.625 -8.774 464.234 -8.383 464.234 -7.895 464.137 -7.797 463.746 -7.407 463.649 -7.309 463.258 -6.918 463.258 -6.43 463.16 -6.332 462.77 -5.942 462.77 -5.454 462.672 -5.356 462.281 -4.965 462.184 -4.868 461.793 -4.477 461.793 -3.989 461.695 -3.891 461.305 -3.5 461.305 -3.012 461.207 -2.915 460.816 -2.524 460.719 -2.426 460.328 -2.036 460.328 -1.547 460.231 -1.45 459.84 -1.059 459.84 -0.571 459.742 -0.473 459.352 -0.082 459.352 0.406 459.254 0.503 458.863 0.894 458.766 0.992 458.375 1.382 458.375 1.871 458.277 1.968 457.887 2.359 457.789 2.457 457.399 2.847 457.399 3.335 457.301 3.433 456.91 3.824 456.813 3.921 456.422 4.312 456.324 4.41 455.934 4.8 455.836 4.898 455.445 5.289 455.348 5.386 454.957 5.777 454.859 5.875 454.469 6.265 454.371 6.363 453.981 6.753 453.883 6.851 453.395 6.851 453.004 7.242 452.906 7.339 452.516 7.73 452.418 7.828 451.93 7.828 451.441 7.828 451.051 8.218 450.953 8.316 450.465 8.316 449.977 8.316 449.586 8.707 449.488 8.804 449 8.804 448.512 8.804 448.024 8.804 447.535 8.804 447.047 8.804 446.559 8.804 446.07 8.804 445.582 8.804 445.094 8.804 444.606 8.804 444.117 8.804 443.629 8.804 443.531 8.707 443.141 8.316 442.652 8.316 442.164 8.316 442.066 8.218 441.676 7.828 441.188 7.828 440.699 7.828 440.602 7.73 440.211 7.339 439.723 7.339 439.234 7.339 439.137 7.242 438.746 6.851 438.258 6.851 438.16 6.753 437.77 6.363 437.281 6.363 437.184 6.265 436.793 5.875 436.305 5.875 436.207 5.777 435.816 5.386 435.328 5.386 435.231 5.289 434.84 4.898 434.352 4.898 434.254 4.8 433.863 4.41 433.375 4.41 433.277 4.312 432.887 3.921 432.399 3.921 432.301 3.824 431.91 3.433 431.422 3.433 431.324 3.335 430.934 2.945 430.445 2.945 430.348 2.847 429.957 2.457 429.859 2.359 429.469 1.968 428.981 1.968 428.883 1.871 428.492 1.48 428.004 1.48 427.906 1.382 427.516 0.992 427.027 0.992 426.93 0.894 426.539 0.503 426.051 0.503 425.953 0.406 425.563 0.015 425.074 0.015 424.977 -0.082 424.586 -0.473 424.098 -0.473 424 -0.571 423.609 -0.961 423.121 -0.961 423.024 -1.059 422.633 -1.45 422.145 -1.45 422.047 -1.547 421.656 -1.938 421.168 -1.938 421.07 -2.036 420.68 -2.426 420.191 -2.426 420.094 -2.524 419.703 -2.915 419.215 -2.915 419.117 -3.012 418.727 -3.403 418.238 -3.403 418.141 -3.5 417.75 -3.891 417.262 -3.891 417.164 -3.989 416.774 -4.379 416.285 -4.379 415.797 -4.379 415.699 -4.477 415.309 -4.868 414.82 -4.868 414.723 -4.965 414.332 -5.356 413.844 -5.356 413.746 -5.454 413.356 -5.844 412.867 -5.844 412.379 -5.844 412.281 -5.942 411.891 -6.332 411.402 -6.332 411.305 -6.43 410.914 -6.821 410.426 -6.821 410.328 -6.918 409.938 -7.309 409.449 -7.309 408.961 -7.309 408.863 -7.407 408.473 -7.797 407.984 -7.797 407.496 -7.797 407.399 -7.895 407.008 -8.286 406.52 -8.286 406.031 -8.286 405.934 -8.383 405.543 -8.774 405.055 -8.774 404.566 -8.774 404.469 -8.872 404.078 -9.262 403.59 -9.262 403.102 -9.262 403.004 -9.36 402.613 -9.75 402.125 -9.75 401.637 -9.75 401.149 -9.75 401.051 -9.848 400.66 -10.239 400.172 -10.239 399.684 -10.239 399.195 -10.239 399.098 -10.336 398.707 -10.727 398.219 -10.727 397.731 -10.727 397.242 -10.727 397.145 -10.825 396.754 -11.215 396.266 -11.215 395.777 -11.215 395.289 -11.215 395.191 -11.313 394.801 -11.704 394.313 -11.704 393.824 -11.704 393.336 -11.704 392.848 -11.704 392.75 -11.801 392.359 -12.192 391.871 -12.192 391.383 -12.192 390.895 -12.192 390.406 -12.192 389.918 -12.192 389.43 -12.192 389.332 -12.29 388.941 -12.68 388.453 -12.68 387.965 -12.68 387.477 -12.68 386.988 -12.68 386.5 -12.68 386.012 -12.68 385.524 -12.68 385.426 -12.778 385.035 -13.168 384.547 -13.168 384.059 -13.168 383.57 -13.168 383.082 -13.168 382.594 -13.168 382.106 -13.168 381.617 -13.168 381.129 -13.168 380.641 -13.168 380.152 -13.168 379.664 -13.168 379.176 -13.168 378.688 -13.168 378.199 -13.168 377.711 -13.168 377.223 -13.168 376.734 -13.168 376.246 -13.168 375.758 -13.168 375.27 -13.168 374.781 -13.168 374.293 -13.168 373.805 -13.168 373.316 -13.168 372.828 -13.168 372.34 -13.168 371.852 -13.168 371.363 -13.168 370.875 -13.168 370.484 -12.778 370.387 -12.68 369.899 -12.68 369.41 -12.68 368.922 -12.68 368.434 -12.68 367.945 -12.68 367.457 -12.68 367.066 -12.29 366.969 -12.192 366.481 -12.192 365.992 -12.192 365.504 -12.192 365.016 -12.192 364.527 -12.192 364.137 -11.801 364.039 -11.704 363.551 -11.704 363.063 -11.704 362.574 -11.704 362.184 -11.313 362.086 -11.215 361.598 -11.215 361.109 -11.215 360.621 -11.215 360.231 -10.825 360.133 -10.727 359.645 -10.727 359.156 -10.727 358.766 -10.336 358.668 -10.239 358.18 -10.239 357.691 -10.239 357.301 -9.848 357.203 -9.75 356.715 -9.75 356.227 -9.75 355.836 -9.36 355.738 -9.262 355.25 -9.262 354.859 -8.872 354.762 -8.774 354.274 -8.774 353.883 -8.383 353.785 -8.286 353.297 -8.286 352.906 -7.895 352.809 -7.797 352.32 -7.797 351.93 -7.407 351.832 -7.309 351.441 -6.918 351.344 -6.821 350.856 -6.821 350.465 -6.43 350.367 -6.332 349.977 -5.942 349.879 -5.844 349.391 -5.844 349 -5.454 348.902 -5.356 348.512 -4.965 348.414 -4.868 347.926 -4.868 347.535 -4.477 347.438 -4.379 347.047 -3.989 346.949 -3.891 346.559 -3.5 346.461 -3.403 346.07 -3.012 345.973 -2.915 345.582 -2.524 345.484 -2.426 345.094 -2.036 344.996 -1.938 344.606 -1.547 344.508 -1.45 344.117 -1.059 344.02 -0.961 343.629 -0.571 343.531 -0.473 343.141 -0.082 343.043 0.015 342.652 0.406 342.555 0.503 342.164 0.894 342.066 0.992 341.676 1.382 341.676 1.871 341.578 1.968 341.188 2.359 341.09 2.457 340.699 2.847 340.699 3.335 340.602 3.433 340.211 3.824 340.211 4.312 340.113 4.41 339.723 4.8 339.723 5.289 339.625 5.386 339.234 5.777 339.234 6.265 339.137 6.363 338.746 6.753 338.746 7.242 338.649 7.339 338.258 7.73 338.258 8.218 338.258 8.707 338.16 8.804 337.77 9.195 337.77 9.683 337.77 10.171 337.77 10.66 337.672 10.757 337.281 11.148 337.281 11.636 337.281 12.125 337.281 12.613 337.281 13.101 337.184 13.199 336.793 13.589 336.793 14.078 336.793 14.566 336.793 15.054 336.793 15.543 336.793 16.031 336.793 16.519 336.793 17.007 336.793 17.496 336.793 17.984 336.793 18.472 336.793 18.96 336.793 19.449 336.793 19.937 336.793 20.425 336.793 20.914 336.793 21.402 336.793 21.89 337.184 22.281 337.281 22.378 337.281 22.867 337.281 23.355 337.281 23.843 337.281 24.332 337.672 24.722 337.77 24.82 337.77 25.308 337.77 25.796 338.16 26.187 338.258 26.285 338.258 26.773 338.258 27.261 338.649 27.652 338.746 27.75 338.746 28.238 339.137 28.628 339.234 28.726 339.234 29.214 339.625 29.605 339.723 29.703 339.723 30.191 340.113 30.582 340.211 30.679 340.211 31.168 340.602 31.558 340.699 31.656 340.699 32.144 341.09 32.535 341.188 32.632 341.578 33.023 341.676 33.121 342.066 33.511 342.164 33.609 342.555 34 342.652 34.097 342.652 34.585 343.043 34.976 343.141 35.074 343.531 35.464 343.629 35.562 344.02 35.953 344.117 36.05 344.508 36.441 344.606 36.539 344.996 36.929 345.094 37.027 345.484 37.418 345.973 37.418 346.07 37.515 346.461 37.906 346.559 38.003 346.949 38.394 347.047 38.492 347.438 38.882 347.926 38.882 348.024 38.98 348.414 39.371 348.512 39.468 348.902 39.859 349.391 39.859 349.488 39.957 349.879 40.347 349.977 40.445 350.367 40.835 350.856 40.835 350.953 40.933 351.344 41.324 351.832 41.324 351.93 41.421 352.32 41.812 352.809 41.812 352.906 41.91 353.297 42.3 353.785 42.3 353.883 42.398 354.274 42.789 354.762 42.789 354.859 42.886 355.25 43.277 355.738 43.277 355.836 43.375 356.227 43.765 356.715 43.765 357.203 43.765 357.301 43.863 357.691 44.253 358.18 44.253 358.277 44.351 358.668 44.742 359.156 44.742 359.254 44.839 359.645 45.23 360.133 45.23 360.621 45.23 360.719 45.328 361.109 45.718 361.598 45.718 362.086 45.718 362.184 45.816 362.574 46.207 363.063 46.207 363.16 46.304 363.551 46.695 364.039 46.695 364.527 46.695 364.625 46.793 365.016 47.183 365.504 47.183 365.992 47.183 366.09 47.281 366.481 47.671 366.969 47.671 367.457 47.671 367.555 47.769 367.945 48.16 368.434 48.16 368.922 48.16 369.41 48.16 369.508 48.257 369.899 48.648 370.387 48.648 370.875 48.648 370.973 48.746 371.363 49.136 371.852 49.136 372.34 49.136 372.438 49.234 372.828 49.625 373.316 49.625 373.805 49.625 374.293 49.625 374.391 49.722 374.781 50.113 375.27 50.113 375.758 50.113 375.856 50.21 376.246 50.601 376.734 50.601 377.223 50.601 377.711 50.601 377.809 50.699 378.199 51.089 378.688 51.089 379.176 51.089 379.664 51.089 379.762 51.187 380.152 51.578 380.641 51.578 381.129 51.578 381.227 51.675 381.617 52.066 382.106 52.066 382.594 52.066 383.082 52.066 383.18 52.164 383.57 52.554 384.059 52.554 384.547 52.554 385.035 52.554 385.133 52.652 385.524 53.043 386.012 53.043 386.5 53.043 386.988 53.043 387.086 53.14 387.477 53.531 387.965 53.531 388.453 53.531 388.941 53.531 389.039 53.628 389.43 54.019 389.918 54.019 390.406 54.019 390.504 54.117 390.895 54.507 391.383 54.507 391.871 54.507 392.359 54.507 392.457 54.605 392.848 54.996 393.336 54.996 393.824 54.996 394.313 54.996 394.41 55.093 394.801 55.484 395.289 55.484 395.777 55.484 396.266 55.484 396.363 55.582 396.754 55.972 397.242 55.972 397.731 55.972 397.828 56.07 398.219 56.46 398.707 56.46 399.195 56.46 399.684 56.46 399.781 56.558 400.172 56.949 400.66 56.949 401.149 56.949 401.246 57.046 401.637 57.437 402.125 57.437 402.613 57.437 402.711 57.535 403.102 57.925 403.59 57.925 404.078 57.925 404.566 57.925 404.664 58.023 405.055 58.414 405.543 58.414 406.031 58.414 406.129 58.511 406.52 58.902 407.008 58.902 407.496 58.902 407.594 59 407.984 59.39 408.473 59.39 408.961 59.39 409.059 59.488 409.449 59.878 409.938 59.878 410.426 59.878 410.524 59.976 410.914 60.367 411.402 60.367 411.891 60.367 411.988 60.464 412.379 60.855 412.867 60.855 412.965 60.953 413.356 61.343 413.844 61.343 414.332 61.343 414.43 61.441 414.82 61.832 415.309 61.832 415.797 61.832 415.895 61.929 416.285 62.32 416.774 62.32 417.262 62.32 417.359 62.418 417.75 62.808 418.238 62.808 418.336 62.906 418.727 63.296 419.215 63.296 419.313 63.394 419.703 63.785 420.191 63.785 420.289 63.882 420.68 64.273 421.168 64.273 421.656 64.273 421.754 64.371 422.145 64.761 422.633 64.761 422.731 64.859 423.121 65.25 423.609 65.25 423.707 65.347 424.098 65.738 424.586 65.738 424.684 65.836 425.074 66.226 425.563 66.226 425.66 66.324 426.051 66.714 426.539 66.714 426.637 66.812 427.027 67.203 427.516 67.203 428.004 67.203 428.102 67.3 428.492 67.691 428.59 67.789 428.981 68.179 429.469 68.179 429.566 68.277 429.957 68.668 430.445 68.668 430.543 68.765 430.934 69.156 431.422 69.156 431.52 69.253 431.91 69.644 432.399 69.644 432.496 69.742 432.887 70.132 433.375 70.132 433.473 70.23 433.863 70.621 433.961 70.718 434.352 71.109 434.84 71.109 434.938 71.207 435.328 71.597 435.816 71.597 435.914 71.695 436.305 72.086 436.402 72.183 436.793 72.574 437.281 72.574 437.379 72.671 437.77 73.062 438.258 73.062 438.356 73.16 438.746 73.55 438.844 73.648 439.234 74.039 439.723 74.039 439.82 74.136 440.211 74.527 440.309 74.625 440.699 75.015 441.188 75.015 441.285 75.113 441.676 75.503 441.774 75.601 442.164 75.992 442.262 76.089 442.652 76.48 443.141 76.48 443.238 76.578 443.629 76.968 443.727 77.066 444.117 77.457 444.215 77.554 444.606 77.945 445.094 77.945 445.191 78.043 445.582 78.433 445.68 78.531 446.07 78.921 446.168 79.019 446.559 79.41 447.047 79.41 447.145 79.507 447.535 79.898 447.633 79.996 448.024 80.386 448.121 80.484 448.512 80.875 448.609 80.972 449 81.363 449.098 81.461 449.488 81.851 449.586 81.949 449.977 82.339 450.465 82.339 450.563 82.437 450.953 82.828 451.051 82.925 451.441 83.316 451.539 83.414 451.93 83.804 452.027 83.902 452.418 84.293 452.516 84.39 452.906 84.781 453.004 84.878 453.395 85.269 453.492 85.367 453.883 85.757 453.981 85.855 454.371 86.246 454.469 86.343 454.859 86.734 454.957 86.832 455.348 87.222 455.445 87.32 455.836 87.711 455.934 87.808 456.324 88.199 456.422 88.296 456.422 88.785 456.813 89.175 456.91 89.273 457.301 89.664 457.399 89.761 457.789 90.152 457.887 90.25 458.277 90.64 458.375 90.738 458.766 91.128 458.863 91.226 458.863 91.714 459.254 92.105 459.352 92.203 459.742 92.593 459.84 92.691 460.231 93.082 460.328 93.179 460.328 93.668 460.719 94.058 460.816 94.156 461.207 94.546 461.305 94.644 461.695 95.035 461.793 95.132 461.793 95.621 462.184 96.011 462.281 96.109 462.672 96.5 462.77 96.597 462.77 97.086 463.16 97.476 463.258 97.574 463.649 97.964 463.746 98.062 463.746 98.55 464.137 98.941 464.234 99.039 464.625 99.429 464.723 99.527 464.723 100.015 465.113 100.406 465.211 100.503 465.211 100.992 465.602 101.382 465.699 101.48 466.09 101.871 466.188 101.968 466.188 102.457 466.578 102.847 466.676 102.945 466.676 103.433 467.066 103.824 467.164 103.921 467.164 104.41 467.555 104.8 467.652 104.898 467.652 105.386 468.043 105.777 468.141 105.875 468.141 106.363 468.531 106.753 468.629 106.851 468.629 107.339 468.629 107.828 469.02 108.218 469.117 108.316 469.117 108.804 469.508 109.195 469.606 109.293 469.606 109.781 469.996 110.171 470.094 110.269 470.094 110.757 470.094 111.246 470.484 111.636 470.582 111.734 470.582 112.222 470.582 112.711 470.973 113.101 471.07 113.199 471.07 113.687 471.461 114.078 471.559 114.175 471.559 114.664 471.559 115.152 471.949 115.543 472.047 115.64 472.047 116.128 472.047 116.617 472.047 117.105 472.438 117.496 472.535 117.593 472.535 118.082 472.535 118.57 472.926 118.961 473.024 119.058 473.024 119.546 473.024 120.035 473.024 120.523 473.414 120.914 473.512 121.011 473.512 121.5 473.512 121.988 473.512 122.476 473.512 122.964 473.902 123.355 474 123.453 474 123.941 474 124.429 474 124.918 474 125.406 474.391 125.796 474.488 125.894 474.488 126.382 474.488 126.871 474.488 127.359 474.488 127.847 474.488 128.336 474.879 128.726 474.977 128.824 474.977 129.312 474.977 129.8 474.977 130.289 474.977 130.777 474.977 131.265 474.977 131.753 474.977 132.242 474.977 132.73 475.367 133.121 475.465 133.218 475.465 133.707 475.465 134.195 475.465 134.683 475.465 135.171 475.465 135.66 475.465 136.148 475.465 136.636 475.465 137.125 475.465 137.613 475.465 138.101 475.465 138.589 475.465 139.078 475.465 139.566 475.856 139.957 475.953 140.054 475.953 140.543 475.953 141.031 475.953 141.519 475.953 142.007 475.953 142.496 475.953 142.984 475.953 143.472 475.953 143.961 475.953 144.449 475.953 144.937 475.953 145.425 475.953 145.914 475.953 146.402 475.953 146.89 475.856 146.988 475.465 147.378 475.465 147.867 475.465 148.355 475.465 148.843 475.465 149.332 475.465 149.82 475.465 150.308 475.465 150.796 475.465 151.285 475.465 151.773 475.465 152.261 475.465 152.75 475.367 152.847 474.977 153.238 474.977 153.726 474.977 154.214 474.977 154.703 474.977 155.191 474.977 155.679 474.977 156.168 474.977 156.656 474.879 156.753 474.488 157.144 474.488 157.632 474.488 158.121 474.488 158.609 474.488 159.097 474.488 159.586 474.391 159.683 474 160.074 474 160.562 474 161.05 474 161.539 474 162.027 473.902 162.125 473.512 162.515 473.512 163.003 473.512 163.492 473.512 163.98 473.414 164.078 473.024 164.468 473.024 164.957 473.024 165.445 473.024 165.933 472.926 166.031 472.535 166.421 472.535 166.91 472.535 167.398 472.535 167.886 472.438 167.984 472.047 168.375 472.047 168.863 472.047 169.351 471.949 169.449 471.559 169.839 471.559 170.328 471.559 170.816 471.461 170.914 471.07 171.304 471.07 171.793 471.07 172.281 470.973 172.378 470.582 172.769 470.582 173.257 470.582 173.746 470.484 173.843 470.094 174.234 470.094 174.722 469.996 174.82 469.606 175.211 469.606 175.699 469.606 176.187 469.508 176.285 469.117 176.675 469.117 177.164 469.02 177.261 468.629 177.652 468.629 178.14 468.629 178.628 468.531 178.726 468.141 179.117 468.141 179.605 468.043 179.703 467.652 180.093 467.652 180.582 467.555 180.679 467.164 181.07 467.164 181.558 467.066 181.656 466.676 182.046 466.676 182.535 466.578 182.632 466.188 183.023 466.188 183.511 466.09 183.609 465.699 184 465.699 184.488 465.602 184.586 465.211 184.976 465.113 185.074 464.723 185.464 464.723 185.953 464.625 186.05 464.234 186.441 464.234 186.929 464.137 187.027 463.746 187.418 463.746 187.906 463.649 188.003 463.258 188.394 463.16 188.492 462.77 188.882 462.77 189.371 462.672 189.468 462.281 189.859 462.184 189.957 461.793 190.347 461.793 190.836 461.695 190.933 461.305 191.324 461.207 191.421 460.816 191.812 460.816 192.3 460.719 192.398 460.328 192.789 460.231 192.886 459.84 193.277 459.742 193.375 459.352 193.765 459.352 194.253 459.254 194.351 458.863 194.742 458.766 194.839 458.375 195.23 458.277 195.328 457.887 195.718 457.789 195.816 457.399 196.207 457.301 196.304 456.91 196.695 456.91 197.183 456.813 197.281 456.422 197.671 456.324 197.769 455.934 198.16 455.836 198.257 455.445 198.648 455.348 198.746 454.957 199.136 454.859 199.234 454.469 199.625 454.371 199.722 453.981 200.113 453.981 200.601 453.883 200.699 453.492 201.089 453.395 201.187 453.004 201.578 452.906 201.675 452.516 202.066 452.418 202.164 452.027 202.554 451.93 202.652 451.539 203.043 451.441 203.14 451.051 203.531 450.953 203.628 450.563 204.019 450.465 204.117 449.977 204.117 449.586 204.507 449.488 204.605 449.098 204.996 449 205.093 448.609 205.484 448.512 205.582 448.121 205.972 448.024 206.07 447.633 206.461 447.535 206.558 447.145 206.949 447.047 207.046 446.656 207.437 446.559 207.535 446.168 207.925 446.07 208.023 445.582 208.023 445.191 208.414 445.094 208.511 444.703 208.902 444.606 209 444.215 209.39 444.117 209.488 443.727 209.878 443.629 209.976 443.141 209.976 442.75 210.367 442.652 210.464 442.262 210.855 442.164 210.953 441.774 211.343 441.676 211.441 441.188 211.441 440.797 211.832 440.699 211.929 440.309 212.32 440.211 212.418 439.723 212.418 439.332 212.808 439.234 212.906 438.844 213.296 438.746 213.394 438.258 213.394 437.867 213.785 437.77 213.882 437.379 214.273 437.281 214.371 436.793 214.371 436.402 214.761 436.305 214.859 435.816 214.859 435.426 215.25 435.328 215.347 434.938 215.738 434.84 215.836 434.352 215.836 433.961 216.226 433.863 216.324 433.375 216.324 432.984 216.714 432.887 216.812 432.496 217.203 432.399 217.3 431.91 217.3 431.52 217.691 431.422 217.789 430.934 217.789 430.543 218.179 430.445 218.277 429.957 218.277 429.566 218.668 429.469 218.765 428.981 218.765 428.59 219.156 428.492 219.253 428.004 219.253 427.613 219.644 427.516 219.742 427.027 219.742 426.637 220.132 426.539 220.23 426.051 220.23 425.66 220.621 425.563 220.718 425.074 220.718 424.586 220.718 424.195 221.109 424.098 221.207 423.609 221.207 423.219 221.597 423.121 221.695 422.633 221.695 422.242 222.086 422.145 222.183 421.656 222.183 421.168 222.183 420.777 222.574 420.68 222.671 420.191 222.671 419.801 223.062 419.703 223.16 419.215 223.16 418.727 223.16 418.336 223.55 418.238 223.648 417.75 223.648 417.262 223.648 416.871 224.039 416.774 224.136 416.285 224.136 415.797 224.136 415.406 224.527 415.309 224.625 414.82 224.625 414.332 224.625 413.941 225.015 413.844 225.113 413.356 225.113 412.867 225.113 412.477 225.503 412.379 225.601 411.891 225.601 411.402 225.601 411.012 225.992 410.914 226.089 410.426 226.089 409.938 226.089 409.547 226.48 409.449 226.578 408.961 226.578 408.473 226.578 407.984 226.578 407.594 226.968 407.496 227.066 407.008 227.066 406.52 227.066 406.031 227.066 405.641 227.457 405.543 227.554 405.055 227.554 404.566 227.554 404.078 227.554 403.59 227.554 403.199 227.945 403.102 228.043 402.613 228.043 402.125 228.043 401.637 228.043 401.246 228.433 401.149 228.531 400.66 228.531 400.172 228.531 399.684 228.531 399.195 228.531 398.707 228.531 398.316 228.921 398.219 229.019 397.731 229.019 397.242 229.019 396.754 229.019 396.266 229.019 395.777 229.019 395.387 229.41 395.289 229.507 394.801 229.507 394.313 229.507 393.824 229.507 393.336 229.507 392.848 229.507 392.359 229.507 391.969 229.898 391.871 229.996 391.383 229.996 390.895 229.996 390.406 229.996 389.918 229.996 389.43 229.996 388.941 229.996 388.453 229.996 387.965 229.996 387.574 230.386 387.477 230.484 386.988 230.484 386.5 230.484 386.012 230.484 385.524 230.484 385.035 230.484 384.547 230.484 384.059 230.484 383.57 230.484 383.082 230.484 382.594 230.484 382.106 230.484 381.617 230.484 381.129 230.484 380.641 230.484 380.25 230.875 380.152 230.972" style="fill: url(&quot;#gradient-0&quot;); paint-order: fill;"/>
      </g>
    </g>
  </g>
</svg>