<svg width="269" height="271" viewBox="0 0 269 271" fill="none" xmlns="http://www.w3.org/2000/svg">
<path d="M0 0V133.978C19.2846 135.5 59.6809 141.894 66.9888 155.292C13.3978 179.652 0 242.581 0 271H133.978C133.978 251.715 137.936 211.319 153.77 204.011C165.949 246.64 234.968 266.433 267.955 271V133.978C249.178 133.978 209.797 130.933 202.489 118.753C257.298 80.9955 268.97 23.8521 267.955 0H133.978C133.47 19.2846 129.106 59.6809 115.708 66.9888C91.3483 14.6157 28.4195 0.507491 0 0Z" fill="url(#paint0_radial_1_62)"/>
<g filter="url(#filter0_i_1_62)">
<path d="M134 60C134 60 144.074 94.1627 159.456 109.544C174.837 124.926 209 135 209 135C209 135 174.837 145.074 159.456 160.456C144.074 175.837 134 210 134 210C134 210 123.926 175.837 108.544 160.456C93.1627 145.074 59 135 59 135C59 135 93.1627 124.926 108.544 109.544C123.926 94.1627 134 60 134 60Z" fill="url(#paint1_radial_1_62)"/>
</g>
<defs>
<filter id="filter0_i_1_62" x="59" y="60" width="150" height="151" filterUnits="userSpaceOnUse" color-interpolation-filters="sRGB">
<feFlood flood-opacity="0" result="BackgroundImageFix"/>
<feBlend mode="normal" in="SourceGraphic" in2="BackgroundImageFix" result="shape"/>
<feColorMatrix in="SourceAlpha" type="matrix" values="0 0 0 0 0 0 0 0 0 0 0 0 0 0 0 0 0 0 127 0" result="hardAlpha"/>
<feOffset dy="1"/>
<feGaussianBlur stdDeviation="1"/>
<feComposite in2="hardAlpha" operator="arithmetic" k2="-1" k3="1"/>
<feColorMatrix type="matrix" values="0 0 0 0 0 0 0 0 0 0 0 0 0 0 0 0 0 0 0.1 0"/>
<feBlend mode="normal" in2="shape" result="effect1_innerShadow_1_62"/>
</filter>
<radialGradient id="paint0_radial_1_62" cx="0" cy="0" r="1" gradientUnits="userSpaceOnUse" gradientTransform="translate(134.007 135.5) rotate(90) scale(135.5 134.007)">
<stop stop-color="#2B4EC2"/>
<stop offset="1" stop-color="#5079FF"/>
</radialGradient>
<radialGradient id="paint1_radial_1_62" cx="0" cy="0" r="1" gradientUnits="userSpaceOnUse" gradientTransform="translate(134 135) rotate(90) scale(75)">
<stop stop-color="#F4F8FB"/>
<stop offset="1" stop-color="#E8F3FB"/>
</radialGradient>
</defs>
</svg>

